<?xml version="1.0" encoding="utf-8"?>
<!-- Generator: Adobe Illustrator 18.1.0, SVG Export Plug-In . SVG Version: 6.00 Build 0)  -->
<svg version="1.1" xmlns="http://www.w3.org/2000/svg" xmlns:xlink="http://www.w3.org/1999/xlink" x="0px" y="0px"
	 viewBox="0 0 78 78" style="enable-background:new 0 0 78 78;" xml:space="preserve">
<g id="Layer_1">
</g>
<g id="Layer_2">
	<g>
		<path d="M24.1,39.9c-0.7,1.5-1.3,2.8-1.9,4.1c-1.7,3.9-3.1,7.9-3.8,12.1c-0.4,2.3-0.5,4.6,0.1,6.9c0.4,1.6,1.3,2.9,3,3.3
			c1.1,0.2,2.3,0,3.4-0.3c2.3-0.7,4.2-1.9,6.2-3.3c0.8-0.6,1.8-0.4,2.2,0.4c0.4,0.6,0.3,1.4-0.3,1.8c-2.8,2-5.6,3.7-9.1,4.2
			c-4.2,0.6-7.2-1.4-8.2-5.5c-0.6-2.4-0.5-4.9-0.2-7.4c1-6.8,3.6-13,6.8-19c0.3-0.6,0.4-1.1,0.1-1.7c-0.8-2.4-1.6-4.7-2.3-7.1
			c-0.2-0.5-0.3-0.6-0.9-0.5c-3.3,0.7-6.5,1.6-9.3,3.3c-1.1,0.7-2.2,1.5-3.1,2.5c-1.4,1.5-1.5,3.2-0.3,5c1.1,1.6,2.6,2.7,4.2,3.6
			c0.5,0.3,1,0.5,1.5,0.8c0.8,0.4,1,1.3,0.6,2c-0.4,0.7-1.2,1-2,0.6c-2.2-1.1-4.3-2.5-5.9-4.4c-1.1-1.2-1.8-2.6-2-4.3
			c-0.2-1.6,0.2-3.1,1.1-4.4c1.2-1.9,3-3.1,4.9-4.2c3-1.7,6.3-2.6,9.7-3.4c0.2,0,0.5-0.1,0.8-0.2c-0.2-0.9-0.3-1.7-0.5-2.6
			c-0.6-3.6-0.8-7.1,0.1-10.7c0.3-1.3,0.8-2.4,1.5-3.5c1.7-2.4,4.5-3.3,7.7-2.5c2.7,0.7,5,2.2,7.1,3.9c0.6,0.5,0.7,1.4,0.2,2
			c-0.5,0.6-1.3,0.7-2,0.2c-1.1-0.7-2.2-1.5-3.3-2.2c-1.2-0.7-2.5-1.2-3.9-1.3c-1.6-0.1-2.8,0.6-3.6,2c-0.7,1.2-1,2.6-1.2,3.9
			c-0.4,3.3,0.1,6.6,0.7,9.8c0.1,0.3,0.2,0.5,0.5,0.4c2.7-0.3,5.5-0.5,8.2-0.8c0.3,0,0.7-0.3,0.9-0.6c3.2-4,6.6-7.7,10.6-10.9
			c2.7-2.1,5.5-4,8.9-5c1.7-0.5,3.4-0.7,5.1-0.2c2.6,0.7,4.1,2.5,4.8,5c0.7,2.4,0.6,4.9,0.3,7.4c-0.1,0.6-0.2,1.3-0.3,1.9
			c-0.2,0.8-0.8,1.3-1.7,1.2c-0.7-0.1-1.3-0.7-1.2-1.5c0.1-1.2,0.4-2.4,0.4-3.6c0-1.4,0-2.8-0.3-4.1c-0.6-3-2.5-4.1-5.5-3.5
			c-2.2,0.5-4.1,1.5-6,2.7c-3.8,2.5-7,5.6-10,8.9c-0.6,0.6-1.1,1.3-1.6,1.9c0,0-0.1,0.1-0.1,0.3c0.3,0,0.5,0,0.8,0.1
			c7.7,0.1,15.3,1,22.8,3.1c3.6,1,7,2.4,10.2,4.3c1.7,1,3.2,2.2,4.4,3.8c2.5,3.2,2.3,6.9-0.6,9.8c-1.9,1.9-4.2,3.1-6.7,4.1
			c-0.7,0.3-1.6-0.1-1.8-0.8c-0.3-0.7,0-1.5,0.8-1.9c0.8-0.4,1.6-0.6,2.3-1c1.2-0.8,2.5-1.5,3.5-2.5c1.9-1.8,1.9-3.8,0.3-5.8
			c-1.4-1.8-3.2-2.9-5.2-4c-3.8-2-7.9-3.3-12.1-4.2c-6.7-1.5-13.5-2.1-20.3-2c-0.5,0-0.8,0.1-1.1,0.6c-2,3-3.9,6.1-5.9,9.1
			c-0.3,0.4-0.3,0.7-0.1,1.2c3.4,7.9,7.6,15.2,13.1,21.8c2.4,2.8,5,5.4,8.1,7.3c1.5,0.9,3,1.7,4.8,1.8c1.6,0.1,2.7-0.6,3.5-1.9
			c0.8-1.3,1.1-2.7,1.2-4.2c0.4-4.7-0.5-9.3-1.7-13.8c-1.3-4.6-3.1-9-5.1-13.4c-0.2-0.3-0.3-0.8-0.3-1.1c0-0.7,0.6-1.2,1.3-1.3
			c0.6-0.1,1.2,0.2,1.5,0.9c0.7,1.6,1.5,3.1,2.2,4.7c2.1,4.9,3.8,10,4.6,15.3c0.6,3.7,0.9,7.4,0.1,11.1c-0.3,1.5-0.9,2.9-1.9,4.1
			c-1.8,2.2-4.1,2.7-6.8,2.2c-2.8-0.6-5.1-2-7.3-3.8C39.4,64,36.1,60,33.1,55.8c-3.4-4.8-6.2-9.8-8.6-15.1
			C24.4,40.5,24.3,40.3,24.1,39.9z M22.7,27.3c0.6,2,1.2,3.9,1.8,5.9c1.5-2.2,2.8-4.3,4.3-6.5C26.7,26.9,24.7,27.1,22.7,27.3z"/>
		<path d="M39,42.4c-2.3,0-4.2-1.9-4.2-4.2c0-2.3,1.9-4.2,4.3-4.2c2.3,0,4.2,1.9,4.2,4.2C43.3,40.6,41.4,42.4,39,42.4z"/>
	</g>
</g>
</svg>
