<?xml version="1.0" encoding="utf-8"?>
<!-- Generator: Adobe Illustrator 18.1.0, SVG Export Plug-In . SVG Version: 6.00 Build 0)  -->
<svg version="1.1" xmlns="http://www.w3.org/2000/svg" xmlns:xlink="http://www.w3.org/1999/xlink" x="0px" y="0px"
	 viewBox="0 0 78 78" style="enable-background:new 0 0 78 78;" xml:space="preserve">
<g id="Layer_1">
</g>
<g id="Layer_2">
	<g>
		<path d="M56.5,61.3c1.4-0.8,1.1-2.2,0-2.9c-0.6-0.4-1.2-0.7-1.8-1.1c-2.6-1.2-5.3-1.8-8.1-2.4c-3.7-0.9-7.5-1.6-11.1-3
			c-2.3-0.9-4.5-1.8-6.4-3.5c-1.4-1.3-0.9-2.7-0.1-3.6c0.9-1,2.1-1.6,3.3-2.1c3.1-1.4,6.5-1.6,9.8-1.8c2.9-0.2,5.7-0.2,8.6-0.3
			c0.7,0,1.4-0.1,2-0.1c0-0.1,0-0.1,0-0.2c-0.2-0.1-0.3-0.3-0.5-0.4c-2.1-1.6-4.1-3.2-6.2-4.8c-2.5-2-5.1-4-7.6-6
			c-0.5-0.4-1-1-1.4-1.6c-0.6-1-0.4-1.8,0.7-2.2c0.7-0.3,1.4-0.5,2.1-0.5c3.9-0.2,7.8,0.2,11.6,0.8c1.7,0.3,3.4,0.8,5.2,0.6
			c2-0.2,3.7-1.5,4.1-3.4c0.5-2.1,0-4-1.5-5.5c-2-2.2-4.5-2.8-7.3-2.7c-1.7,0-3.5,0.1-5.2,0.2c-1.8,0.1-3.6,0.2-5.5,0.3
			c-0.2,0-0.3,0.1-0.5,0.1c1.1,0.4,2.2,0.6,3.3,0.8c2.4,0.6,4.8,1.2,7.2,1.8c0.6,0.2,1.2,0.5,1.6,0.9c0.7,0.6,0.6,1.4-0.3,1.6
			c-0.8,0.2-1.7,0.3-2.5,0.3c-1.9-0.1-3.7-0.3-5.6-0.5c-1.9-0.2-3.9-0.4-5.8-0.7c-2.5-0.3-4.9-0.9-7.4-0.7c-0.7,0-1.5,0.2-2.2,0.5
			c-1.7,0.7-2.3,2.2-1.6,3.9c0.7,1.8,1.7,3.4,3,4.8c3,3.3,6.4,6,10.2,8.3c0.2,0.1,0.4,0.2,0.5,0.3c-2.1-0.3-4.2-0.6-6.4-0.9
			c-3.6-0.4-7.1-0.1-10.6,0.9c-2.1,0.6-4.2,1.3-6,2.8c-1.4,1.3-2.3,2.8-2,4.8c0.3,1.8,1.3,3.2,2.5,4.4c1.8,1.9,4,3.2,6.2,4.6
			c4.6,2.9,9.7,4.4,15.2,5c1.8,0.2,3.5,0.6,5.3,1c0.3,0.1,0.6,0.3,0.9,0.4c0,0.1,0,0.2,0,0.3c-3.6,0.7-7.3,0.7-11,0.9
			c-3.7,0.2-7.4,0.1-11.1,0.2c0.1,0.2,0.3,0.3,0.4,0.3c3.6,1,7.4,1.4,11.1,1.6c3,0.2,6,0.3,8.9,0.3c2.5,0,5-0.3,7.5-0.5
			C53.7,62.5,55.2,62.1,56.5,61.3z"/>
		<circle style="fill:none;stroke:#000000;stroke-width:3;stroke-miterlimit:10;" cx="38.6" cy="38.9" r="32.7"/>
	</g>
</g>
</svg>
