<?xml version="1.0" encoding="utf-8"?>
<!-- Generator: Adobe Illustrator 18.1.0, SVG Export Plug-In . SVG Version: 6.00 Build 0)  -->
<svg version="1.1" xmlns="http://www.w3.org/2000/svg" xmlns:xlink="http://www.w3.org/1999/xlink" x="0px" y="0px"
	 viewBox="0 0 78 78" style="enable-background:new 0 0 78 78;" xml:space="preserve">
<g id="Layer_1">
</g>
<g id="Layer_2">
	<path style="fill:none;stroke:#000000;stroke-width:3;stroke-miterlimit:10;" d="M12.7,24.5c2.7,1.1,2.7,1.1,2.7,3.9
		c0,13.3,0,26.6,0,39.9c0,1.2,0.2,1.9,1.5,2.4c1.4,0.5,2.3,0.2,3.2-0.8c8.3-8.4,16.7-16.7,25-25.1c6.9-7,13.9-14,20.8-21
		c0.4-0.4,0.8-0.9,0.8-1.4c0-1.5-1.5-2.9-3-2.9c-1.6,0-3.1,0-4.7,0c-4,0-7.9,0.1-11.9,0c-1.6,0-2.1,1-2.4,2.1
		c-0.1,0.5,0.4,1.3,0.8,1.8c0.7,0.8,1.6,1.5,2.5,2.4c-6.8,6.6-13.4,12.9-19.9,19.3c0,0-0.1-0.2-0.1-0.4c0-4.1,0.1-8.2-0.1-12.3
		c-0.1-3.6,0.3-6.8,2.8-9.6c0.5-0.6,0.8-1.9,0.5-2.5c-0.3-0.6-1.5-1-2.4-1c-4.4-0.1-8.9,0-13.4,0c-2.9,0-3.3,0.4-3.9,3.3
		C11.4,23.6,11.8,24.1,12.7,24.5z"/>
	<path style="fill:none;stroke:#000000;stroke-width:3;stroke-miterlimit:10;" d="M6.8,38.6l8.6,8.6c0-5.7,0-11.4,0-17.2L6.8,38.6z"
		/>
	<path style="fill:none;stroke:#000000;stroke-width:3;stroke-miterlimit:10;" d="M31.3,20.3c0.3,0.6,0,1.9-0.5,2.5
		c-2.5,2.8-3,6-2.8,9.6c0.2,4.1,0,8.2,0.1,12.3c0,0.2,0.1,0.4,0.1,0.4c6.6-6.4,13.2-12.7,19.9-19.3c-1-0.9-1.8-1.5-2.5-2.4
		c-0.4-0.5-1-1.3-0.8-1.8c0.3-1.1,0.8-2.1,2.4-2.1c1.8,0,3.6,0,5.4,0L39.1,6.3l-13,13c1,0,1.9,0,2.9,0C29.8,19.3,31,19.7,31.3,20.3z
		"/>
	<path style="fill:none;stroke:#000000;stroke-width:3;stroke-miterlimit:10;" d="M71.4,38.6L61.3,28.4c-5.4,5.5-10.8,11-16.2,16.4
		c-5.3,5.3-10.6,10.7-15.9,16l10,10L71.4,38.6z"/>
</g>
</svg>
