<?xml version="1.0" encoding="utf-8"?>
<!-- Generator: Adobe Illustrator 18.1.0, SVG Export Plug-In . SVG Version: 6.00 Build 0)  -->
<svg version="1.1" xmlns="http://www.w3.org/2000/svg" xmlns:xlink="http://www.w3.org/1999/xlink" x="0px" y="0px"
	 viewBox="0 0 78 78" style="enable-background:new 0 0 78 78;" xml:space="preserve">
<g id="Layer_1">
</g>
<g id="Layer_2">
	<g>
		<path d="M9.4,39.4c0-8.4,0-16.9,0-25.3c0-4.5,2.7-7.2,7.3-7.2c15.6,0,31.3,0,46.9,0c4.4,0,7.2,2.8,7.2,7.2c0,16.8,0,33.7,0,50.5
			c0,4.6-2.7,7.4-7.4,7.4c-12.5,0-25,0-37.4,0c-3.1,0-6.2,0-9.2,0c-4.6,0-7.3-2.8-7.3-7.3C9.4,56.2,9.4,47.8,9.4,39.4z M12.4,39.4
			c0,8.4,0,16.7,0,25.1c0,3,1.4,4.4,4.4,4.4c15.5,0,31,0,46.6,0c2.9,0,4.4-1.4,4.4-4.3c0-16.8,0-33.7,0-50.5c0-2.8-1.4-4.2-4.2-4.2
			c-15.6,0-31.3,0-46.9,0c-2.8,0-4.2,1.4-4.2,4.2C12.4,22.5,12.4,30.9,12.4,39.4z"/>
		<path d="M27.4,52.3c1.7,0,3.3,0,4.9,0c0,2.2,0,4.4,0,6.6c-4.2,0-8.4,0-12.7,0c0-13.1,0-26.3,0-39.5c4.3,0,8.4,0,12.7,0
			c0,2.2,0,4.4,0,6.6c-1.6,0-3.2,0-4.9,0C27.4,34.9,27.4,43.5,27.4,52.3z"/>
		<path d="M52.2,26.4c-1.7,0-3.3,0-4.9,0c0-2.2,0-4.4,0-6.6c4.2,0,8.4,0,12.7,0c0,13.1,0,26.3,0,39.5c-4.3,0-8.4,0-12.7,0
			c0-2.2,0-4.4,0-6.6c1.6,0,3.2,0,4.9,0C52.2,43.8,52.2,35.2,52.2,26.4z"/>
	</g>
</g>
</svg>
