<?xml version="1.0" encoding="utf-8"?>
<!-- Generator: Adobe Illustrator 18.1.0, SVG Export Plug-In . SVG Version: 6.00 Build 0)  -->
<svg version="1.1" xmlns="http://www.w3.org/2000/svg" xmlns:xlink="http://www.w3.org/1999/xlink" x="0px" y="0px"
	 viewBox="0 0 78 78" style="enable-background:new 0 0 78 78;" xml:space="preserve">
<g id="Layer_1">
</g>
<g id="Layer_2">
	<g>
		<path d="M38.9,4.9c18.9,0,34.2,15.2,34.2,34.2c0,19-15.2,34.3-34.3,34.2c-19-0.1-34.2-15.4-34.1-34.2C4.7,20.2,20,4.9,38.9,4.9z
			 M39,7.9C21.9,7.9,7.8,21.8,7.7,38.9C7.6,56.2,21.6,70.2,38.8,70.3c17.1,0.1,31.2-14.1,31.2-31.2C70.1,22,56.1,8,39,7.9z"/>
		<path d="M40.7,36.5c-2.3-1.7-4.4-3.2-6.4-4.9c-2.6-2.1-4.9-4.5-6.3-7.6c-1.3-2.8-0.2-4.9,2.8-5c2.7-0.1,5.5,0.3,8.2,0.6
			c3.8,0.3,7.5,0.8,11.3,1.1c0.8,0.1,1.7-0.1,2.5-0.3c0.9-0.2,1-0.9,0.3-1.4c-0.6-0.4-1.3-0.8-2-1c-3.2-0.9-6.5-1.7-9.9-2.5
			c0.3-0.1,0.4-0.2,0.5-0.2c4.2-0.1,8.4-0.4,12.6-0.3c2.5,0,4.5,1.3,5.9,3.4c1.2,1.8,1.4,3.8,0.4,5.8c-1,1.9-2.7,2.6-4.7,2.4
			c-2.8-0.3-5.6-0.9-8.4-1.1c-2.4-0.2-4.9-0.3-7.3-0.3c-1.2,0-2.6,0.1-3.1,1.4c-0.5,1.3,0.8,2.2,1.7,2.9c4.4,3.5,8.8,6.9,13.2,10.4
			c0.3,0.2,0.6,0.5,0.9,1c-1.7,0.1-3.4,0.1-5.1,0.2c-4,0.3-8.1,0.4-12,1c-2,0.3-4,1.4-5.7,2.5c-2.1,1.3-2,3-0.1,4.6
			c3,2.3,6.5,3.4,10,4.3c3.9,1,7.9,1.9,11.8,2.9c1.7,0.5,3.3,1.3,4.9,2.2c1.5,0.8,1.4,2.3-0.1,3.1c-1,0.5-2.1,1-3.3,1.1
			c-9.4,1.1-18.7,0.9-28-1.1c-0.2,0-0.4-0.1-0.5-0.2c0-0.1,0-0.3,0-0.4c2.4,0,4.8,0,7.2,0c2.4,0,4.8-0.1,7.2-0.3
			c2.4-0.1,4.8-0.4,7.2-0.5c0-0.2,0-0.3,0.1-0.5c-0.5-0.2-1-0.4-1.5-0.5c-3.1-0.6-6.3-1-9.4-1.7c-5.9-1.2-11-4.1-15.5-7.9
			c-1.1-0.9-2-2.1-2.7-3.3c-1.5-2.5-0.9-5.1,1.3-7c2.6-2.1,5.7-2.8,8.8-3.4c4-0.8,8-0.3,12,0.3C39.8,36.4,40.2,36.4,40.7,36.5z"/>
	</g>
</g>
</svg>
