<?xml version="1.0" encoding="utf-8"?>
<!-- Generator: Adobe Illustrator 18.1.0, SVG Export Plug-In . SVG Version: 6.00 Build 0)  -->
<svg version="1.1" xmlns="http://www.w3.org/2000/svg" xmlns:xlink="http://www.w3.org/1999/xlink" x="0px" y="0px"
	 viewBox="0 0 78 78" style="enable-background:new 0 0 78 78;" xml:space="preserve">
<g id="Layer_1">
</g>
<g id="Layer_2">
	<g>
		<path d="M8.4,39.4c0-8.5,0-17,0-25.4c0-4,2.4-6.7,6.4-7.1c0.5,0,1-0.1,1.4-0.1c15.6,0,31.1,0,46.7,0c2.4,0,4.6,0.5,6.2,2.4
			c1.1,1.3,1.6,2.8,1.6,4.4c0,17.2,0,34.3,0,51.5c0,3.7-2.5,6.3-6.1,6.8c-0.8,0.1-1.5,0.1-2.3,0.1c-15.2,0-30.4,0-45.6,0
			c-1.1,0-2.3-0.1-3.3-0.3c-3.1-0.7-5-3.4-5-6.6C8.4,56.5,8.4,47.9,8.4,39.4z M12.4,39.3c0,8.5,0,17,0,25.5c0,2.5,1.5,4,4,4
			c15.4,0,30.8,0,46.2,0c2.6,0,4.1-1.5,4.1-4.1c0-17,0-33.9,0-50.9c0-2.6-1.5-4.1-4.1-4.1c-15.4,0-30.7,0-46.1,0
			c-2.7,0-4.1,1.4-4.1,4.1C12.4,22.4,12.4,30.8,12.4,39.3z"/>
		<path d="M28.6,25.5c-2-1.3-3.9-2.6-5.8-3.8c-0.9-0.6-1.9-1.1-2.7-1.8c-0.5-0.5-0.9-1.3-0.9-2c-0.1-1.3,0.8-1.8,2-1.2
			c0.9,0.5,1.7,1.1,2.5,1.6c2.5,1.6,5,3.2,7.4,4.8c0.4,0.3,0.9,0.6,1.2,0.9c1,1,1,2.2,0,3.1c-0.3,0.3-0.7,0.6-1.1,0.8
			c-3.2,2-6.3,4-9.5,6.1c-0.8,0.5-1.6,1.2-2.4,0.1c-0.6-0.8-0.4-2.2,0.6-2.9c1.9-1.4,3.9-2.6,5.9-3.9C26.7,26.7,27.6,26.1,28.6,25.5
			z"/>
	</g>
</g>
</svg>
