<?xml version="1.0" encoding="utf-8"?>
<!-- Generator: Adobe Illustrator 18.1.0, SVG Export Plug-In . SVG Version: 6.00 Build 0)  -->
<svg version="1.1" xmlns="http://www.w3.org/2000/svg" xmlns:xlink="http://www.w3.org/1999/xlink" x="0px" y="0px"
	 viewBox="0 0 78 78" style="enable-background:new 0 0 78 78;" xml:space="preserve">
<g id="Layer_1">
</g>
<g id="Layer_2">
	<g>
		<path d="M39.1,73.1c-3.2-3.2-6.4-6.4-9.8-9.8c-2.7,2.7-5.3,5.3-8,8c-1.2,1.2-2.6,1.7-4.2,1.2c-2-0.6-2.9-1.8-2.9-3.8
			c0-6.5,0-13,0-19.4c0-0.9-0.3-1.5-0.9-2.1c-2.5-2.5-5-5-7.5-7.5c-0.3-0.3-0.5-0.6-0.9-0.9c2.8-2.8,5.5-5.6,8.3-8.2
			c1.1-1,1-2.1,0.9-3.3c0-0.3-0.4-0.6-0.7-0.7c-0.4-0.3-1-0.4-1.4-0.6c-0.5-0.3-1-0.7-1.3-1.2c-1.2-2.1,0.5-6,2.9-6.5
			c0.8-0.2,1.6-0.2,2.4-0.2c2.8,0,5.6,0,8.4,0c1,0,1.6-0.2,2.3-0.9c3.9-3.9,7.8-7.8,11.7-11.7c0.3-0.3,0.6-0.6,1-1
			c0.4,0.3,0.7,0.6,1,0.9c4,4,8,8,12,12.1c0.7,0.7,1.4,1,2.4,1c2.9-0.1,5.8,0,8.8,0c1.8,0,3.3,0.7,4.2,2.2c1,1.6,0.8,3-0.5,4.4
			c-1.2,1.2-2.5,2.3-3.7,3.4c3.6,3.5,6.9,6.8,10.2,10C62.1,50,50.7,61.5,39.1,73.1z M13.4,23.3c3.4,0.7,3.9,3.1,3.8,6.1
			c-0.1,12.7-0.1,25.4-0.1,38.2c0,0.4,0,0.7,0,1.1c0.1,0.9,0.9,1.3,1.6,0.8c0.3-0.2,0.6-0.5,0.8-0.7c2.7-2.8,5.4-5.5,8.2-8.3
			C40,48.2,52.3,35.9,64.5,23.5c0.3-0.3,0.8-1.1,0.6-1.3c-0.3-0.4-0.9-0.8-1.4-0.8c-5.4-0.1-10.7,0-16.1,0c-0.3,0-0.8,0.2-0.9,0.4
			c-0.1,0.2,0.1,0.7,0.3,0.9c0.4,0.5,0.8,0.9,1.3,1.3c0.7,0.7,1.5,1.4,2.3,2.1c-7.7,7.5-15.4,14.9-23.2,22.4
			c-0.2-1.3-0.6-2.3-0.6-3.4c-0.1-4.9-0.2-9.8-0.1-14.7c0-3,1-5.7,2.9-8c0.2-0.2,0.2-0.6,0.4-0.8c-0.3-0.1-0.6-0.3-1-0.3
			c-4.4-0.1-8.9-0.1-13.3-0.1C13.9,21,13.7,21.2,13.4,23.3z M61.9,31.5c-10.1,9.8-20.2,19.7-30.2,29.4c2.7,2.7,5.3,5.3,7.6,7.6
			c9.9-9.9,19.9-19.9,29.8-29.8C66.7,36.2,64.1,33.6,61.9,31.5z M30.2,18c3.2,1.2,4,3.6,2,6c-1.8,2.1-2.5,4.5-2.5,7.2
			c0,3.3,0.1,6.6,0.1,9.8c0,0.2,0.1,0.3,0.2,0.6c5.4-5.2,10.7-10.3,16-15.4c-1.4-1.6-3.2-2.9-2.3-5.4c0.9-2.4,2.8-2.7,4.9-2.6
			c-3.1-3.1-6.2-6.3-9.2-9.3C36.4,11.9,33.3,15,30.2,18z M9.6,38.7c1.5,1.5,3,3,4.4,4.4c0-2.8,0-5.9,0-8.9
			C12.5,35.8,11,37.3,9.6,38.7z"/>
	</g>
</g>
</svg>
